<svg xmlns="http://www.w3.org/2000/svg" xmlns:xlink="http://www.w3.org/1999/xlink" width="50" zoomAndPan="magnify" viewBox="0 0 37.5 37.499999" height="50" preserveAspectRatio="xMidYMid meet" version="1.0"><defs><clipPath id="3ad299b924"><path d="M 1 0.976562 L 36.226562 0.976562 L 36.226562 36.226562 L 1 36.226562 Z M 1 0.976562 " clip-rule="nonzero"/></clipPath></defs><path fill="#31356e" d="M 5.0625 17.03125 L 9.945312 22.429688 C 10.097656 22.605469 10.277344 22.746094 10.480469 22.851562 C 10.683594 22.960938 10.898438 23.03125 11.128906 23.058594 C 11.355469 23.089844 11.582031 23.078125 11.808594 23.027344 C 12.03125 22.976562 12.242188 22.886719 12.433594 22.757812 C 12.625 22.632812 12.789062 22.476562 12.925781 22.289062 C 13.0625 22.101562 13.160156 21.898438 13.222656 21.675781 C 13.285156 21.453125 13.308594 21.226562 13.289062 21 C 13.269531 20.769531 13.210938 20.550781 13.113281 20.339844 L 15.0625 18.574219 L 24.8125 29.363281 C 25.238281 29.835938 25.769531 30.089844 26.402344 30.117188 C 26.445312 30.117188 26.484375 30.121094 26.519531 30.121094 C 26.976562 30.121094 27.394531 30 27.777344 29.75 C 28.160156 29.503906 28.441406 29.171875 28.625 28.753906 C 28.8125 28.339844 28.867188 27.90625 28.792969 27.457031 C 28.722656 27.007812 28.53125 26.613281 28.226562 26.277344 L 18.480469 15.488281 L 20.484375 13.675781 C 20.679688 13.792969 20.890625 13.871094 21.117188 13.914062 C 21.34375 13.953125 21.570312 13.953125 21.792969 13.914062 C 22.019531 13.875 22.230469 13.796875 22.429688 13.679688 C 22.625 13.5625 22.796875 13.417969 22.941406 13.238281 C 23.085938 13.0625 23.195312 12.863281 23.269531 12.648438 C 23.34375 12.429688 23.378906 12.207031 23.375 11.976562 C 23.367188 11.75 23.320312 11.527344 23.234375 11.316406 C 23.152344 11.101562 23.03125 10.910156 22.878906 10.742188 L 17.992188 5.335938 C 17.828125 5.15625 17.640625 5.011719 17.421875 4.902344 C 17.203125 4.792969 16.972656 4.726562 16.730469 4.707031 C 16.488281 4.683594 16.25 4.707031 16.015625 4.777344 C 15.78125 4.847656 15.570312 4.957031 15.378906 5.109375 C 15.1875 5.257812 15.03125 5.441406 14.90625 5.652344 C 14.785156 5.859375 14.707031 6.085938 14.667969 6.328125 C 14.632812 6.570312 14.640625 6.808594 14.695312 7.046875 C 14.75 7.28125 14.847656 7.5 14.984375 7.703125 L 7.71875 14.269531 C 7.390625 13.992188 7.007812 13.839844 6.578125 13.8125 C 6.1875 13.796875 5.828125 13.886719 5.496094 14.089844 C 5.164062 14.289062 4.914062 14.566406 4.75 14.917969 C 4.582031 15.269531 4.527344 15.636719 4.585938 16.023438 C 4.644531 16.40625 4.800781 16.742188 5.0625 17.03125 Z M 27.625 27.871094 C 27.609375 28.175781 27.488281 28.433594 27.261719 28.636719 C 27.035156 28.84375 26.769531 28.9375 26.464844 28.921875 C 26.15625 28.90625 25.902344 28.785156 25.699219 28.558594 L 24.878906 27.648438 L 26.523438 26.167969 L 27.34375 27.074219 C 27.546875 27.300781 27.644531 27.566406 27.625 27.871094 Z M 25.722656 25.277344 L 24.074219 26.761719 L 15.949219 17.773438 L 17.59375 16.289062 Z M 16.078125 6.085938 C 16.21875 5.960938 16.382812 5.898438 16.566406 5.898438 L 16.601562 5.898438 C 16.804688 5.90625 16.972656 5.988281 17.105469 6.136719 L 21.992188 11.542969 C 22.121094 11.691406 22.183594 11.863281 22.171875 12.0625 C 22.160156 12.261719 22.082031 12.425781 21.933594 12.558594 C 21.785156 12.691406 21.613281 12.753906 21.414062 12.746094 C 21.21875 12.738281 21.050781 12.660156 20.914062 12.515625 L 16.027344 7.109375 C 15.894531 6.960938 15.832031 6.785156 15.84375 6.585938 C 15.851562 6.386719 15.933594 6.21875 16.078125 6.085938 Z M 15.769531 8.605469 L 17.164062 10.148438 L 19.609375 12.855469 L 17.679688 14.601562 L 14.261719 17.6875 L 12.382812 19.390625 L 8.539062 15.136719 Z M 6 15.195312 C 6.140625 15.070312 6.304688 15.003906 6.492188 15.007812 L 6.515625 15.007812 C 6.722656 15.019531 6.894531 15.097656 7.03125 15.25 L 9.867188 18.390625 L 11.914062 20.652344 C 12.046875 20.800781 12.109375 20.976562 12.101562 21.175781 C 12.089844 21.378906 12.011719 21.546875 11.859375 21.679688 C 11.710938 21.816406 11.535156 21.878906 11.335938 21.867188 C 11.132812 21.859375 10.964844 21.777344 10.832031 21.628906 L 5.949219 16.230469 C 5.8125 16.078125 5.75 15.902344 5.761719 15.699219 C 5.769531 15.5 5.851562 15.332031 6 15.195312 Z M 6 15.195312 " fill-opacity="1" fill-rule="nonzero"/><path fill="#31356e" d="M 7.492188 6.339844 C 7.640625 6.339844 7.773438 6.292969 7.886719 6.195312 C 8.011719 6.085938 8.078125 5.949219 8.089844 5.785156 C 8.101562 5.621094 8.050781 5.476562 7.945312 5.351562 C 7.835938 5.226562 7.699219 5.160156 7.535156 5.148438 C 7.367188 5.136719 7.222656 5.183594 7.097656 5.292969 C 6.972656 5.402344 6.90625 5.539062 6.894531 5.703125 C 6.882812 5.867188 6.929688 6.011719 7.039062 6.136719 C 7.160156 6.269531 7.3125 6.339844 7.492188 6.339844 Z M 7.492188 6.339844 " fill-opacity="1" fill-rule="nonzero"/><path fill="#31356e" d="M 16.199219 2.359375 C 16.226562 2.359375 16.253906 2.359375 16.28125 2.351562 C 16.386719 2.339844 16.480469 2.300781 16.5625 2.234375 C 16.644531 2.171875 16.707031 2.09375 16.746094 1.996094 C 16.789062 1.902344 16.804688 1.800781 16.792969 1.699219 C 16.78125 1.59375 16.746094 1.5 16.6875 1.414062 C 16.625 1.332031 16.546875 1.265625 16.453125 1.222656 C 16.359375 1.175781 16.261719 1.160156 16.15625 1.164062 C 16.054688 1.171875 15.957031 1.207031 15.871094 1.261719 C 15.785156 1.320312 15.714844 1.394531 15.667969 1.488281 C 15.621094 1.578125 15.597656 1.679688 15.601562 1.78125 C 15.605469 1.886719 15.636719 1.984375 15.6875 2.070312 C 15.742188 2.160156 15.816406 2.230469 15.90625 2.28125 C 15.996094 2.332031 16.09375 2.359375 16.199219 2.359375 Z M 16.199219 2.359375 " fill-opacity="1" fill-rule="nonzero"/><path fill="#31356e" d="M 13.828125 2.871094 C 13.921875 2.875 14.011719 2.855469 14.097656 2.8125 C 14.183594 2.769531 14.253906 2.710938 14.3125 2.636719 C 14.367188 2.558594 14.402344 2.476562 14.421875 2.382812 C 14.4375 2.289062 14.429688 2.195312 14.402344 2.105469 C 14.359375 1.957031 14.269531 1.84375 14.140625 1.765625 C 14.007812 1.683594 13.867188 1.660156 13.714844 1.6875 C 13.5625 1.71875 13.441406 1.792969 13.351562 1.917969 C 13.257812 2.039062 13.21875 2.179688 13.234375 2.332031 C 13.25 2.484375 13.3125 2.613281 13.425781 2.714844 C 13.539062 2.820312 13.675781 2.871094 13.828125 2.871094 Z M 13.828125 2.871094 " fill-opacity="1" fill-rule="nonzero"/><path fill="#31356e" d="M 11.558594 3.71875 C 11.644531 3.71875 11.730469 3.703125 11.808594 3.667969 C 11.960938 3.597656 12.0625 3.488281 12.121094 3.332031 C 12.179688 3.179688 12.171875 3.027344 12.105469 2.878906 C 12.035156 2.726562 11.925781 2.625 11.769531 2.566406 C 11.617188 2.507812 11.464844 2.515625 11.3125 2.582031 C 11.164062 2.652344 11.058594 2.761719 11 2.917969 C 10.945312 3.070312 10.949219 3.222656 11.019531 3.375 C 11.125 3.605469 11.304688 3.722656 11.558594 3.71875 Z M 11.558594 3.71875 " fill-opacity="1" fill-rule="nonzero"/><path fill="#31356e" d="M 9.433594 4.882812 C 9.550781 4.886719 9.660156 4.851562 9.757812 4.789062 C 9.839844 4.738281 9.902344 4.667969 9.953125 4.585938 C 10 4.5 10.027344 4.410156 10.03125 4.3125 C 10.035156 4.214844 10.015625 4.125 9.976562 4.035156 C 9.9375 3.949219 9.878906 3.875 9.800781 3.8125 C 9.726562 3.753906 9.640625 3.714844 9.542969 3.695312 C 9.449219 3.679688 9.355469 3.683594 9.261719 3.710938 C 9.167969 3.738281 9.089844 3.785156 9.019531 3.851562 C 8.949219 3.917969 8.898438 4 8.867188 4.089844 C 8.835938 4.183594 8.824219 4.277344 8.839844 4.371094 C 8.855469 4.46875 8.890625 4.554688 8.945312 4.632812 C 9 4.710938 9.074219 4.773438 9.160156 4.820312 C 9.246094 4.863281 9.335938 4.882812 9.433594 4.882812 Z M 9.433594 4.882812 " fill-opacity="1" fill-rule="nonzero"/><path fill="#31356e" d="M 1.710938 16.769531 C 1.738281 16.773438 1.765625 16.777344 1.796875 16.773438 C 1.902344 16.777344 2 16.75 2.089844 16.699219 C 2.183594 16.648438 2.257812 16.578125 2.3125 16.492188 C 2.367188 16.402344 2.394531 16.304688 2.402344 16.199219 C 2.40625 16.09375 2.382812 15.996094 2.335938 15.902344 C 2.289062 15.808594 2.222656 15.730469 2.132812 15.675781 C 2.046875 15.617188 1.949219 15.582031 1.847656 15.574219 C 1.742188 15.566406 1.640625 15.585938 1.546875 15.628906 C 1.453125 15.671875 1.375 15.738281 1.3125 15.824219 C 1.25 15.90625 1.214844 16.003906 1.203125 16.105469 C 1.191406 16.210938 1.207031 16.3125 1.246094 16.40625 C 1.285156 16.503906 1.347656 16.585938 1.433594 16.648438 C 1.515625 16.714844 1.609375 16.753906 1.710938 16.769531 Z M 1.710938 16.769531 " fill-opacity="1" fill-rule="nonzero"/><path fill="#31356e" d="M 2.140625 14.378906 C 2.195312 14.398438 2.25 14.40625 2.308594 14.402344 C 2.410156 14.402344 2.503906 14.378906 2.59375 14.328125 C 2.683594 14.28125 2.753906 14.214844 2.808594 14.128906 C 2.863281 14.042969 2.894531 13.949219 2.902344 13.847656 C 2.910156 13.746094 2.890625 13.652344 2.847656 13.558594 C 2.804688 13.464844 2.742188 13.390625 2.664062 13.328125 C 2.582031 13.269531 2.492188 13.230469 2.390625 13.21875 C 2.289062 13.203125 2.191406 13.214844 2.097656 13.25 C 2.003906 13.285156 1.921875 13.34375 1.855469 13.417969 C 1.789062 13.496094 1.746094 13.582031 1.722656 13.683594 C 1.703125 13.78125 1.707031 13.878906 1.734375 13.976562 C 1.765625 14.074219 1.816406 14.160156 1.886719 14.230469 C 1.957031 14.300781 2.042969 14.351562 2.140625 14.378906 Z M 2.140625 14.378906 " fill-opacity="1" fill-rule="nonzero"/><path fill="#31356e" d="M 5.777344 8.0625 C 5.960938 8.0625 6.109375 7.992188 6.226562 7.851562 C 6.285156 7.785156 6.324219 7.707031 6.347656 7.617188 C 6.371094 7.53125 6.371094 7.441406 6.355469 7.355469 C 6.335938 7.265625 6.300781 7.1875 6.246094 7.113281 C 6.191406 7.042969 6.125 6.988281 6.042969 6.945312 C 5.960938 6.90625 5.875 6.882812 5.785156 6.882812 C 5.695312 6.882812 5.609375 6.898438 5.527344 6.9375 C 5.445312 6.976562 5.378906 7.03125 5.320312 7.101562 C 5.261719 7.167969 5.222656 7.25 5.203125 7.335938 C 5.183594 7.425781 5.183594 7.511719 5.203125 7.601562 C 5.222656 7.6875 5.257812 7.769531 5.316406 7.839844 C 5.371094 7.910156 5.441406 7.964844 5.523438 8.003906 C 5.601562 8.042969 5.6875 8.0625 5.777344 8.0625 Z M 5.777344 8.0625 " fill-opacity="1" fill-rule="nonzero"/><path fill="#31356e" d="M 2.910156 12.074219 C 2.988281 12.109375 3.070312 12.128906 3.15625 12.128906 C 3.304688 12.128906 3.4375 12.082031 3.546875 11.984375 C 3.660156 11.886719 3.726562 11.761719 3.75 11.617188 C 3.769531 11.46875 3.742188 11.332031 3.660156 11.207031 C 3.578125 11.082031 3.46875 11 3.324219 10.957031 C 3.179688 10.917969 3.042969 10.925781 2.90625 10.988281 C 2.773438 11.050781 2.675781 11.152344 2.613281 11.285156 C 2.542969 11.4375 2.539062 11.589844 2.597656 11.742188 C 2.65625 11.898438 2.761719 12.007812 2.910156 12.074219 Z M 2.910156 12.074219 " fill-opacity="1" fill-rule="nonzero"/><path fill="#31356e" d="M 4 9.90625 C 4.097656 9.96875 4.203125 10 4.320312 10.003906 C 4.539062 10 4.703125 9.910156 4.824219 9.726562 C 4.910156 9.589844 4.9375 9.441406 4.90625 9.277344 C 4.871094 9.117188 4.785156 8.992188 4.644531 8.902344 C 4.507812 8.8125 4.359375 8.785156 4.195312 8.820312 C 4.035156 8.855469 3.910156 8.941406 3.820312 9.078125 C 3.730469 9.21875 3.703125 9.367188 3.738281 9.527344 C 3.773438 9.691406 3.859375 9.816406 3.996094 9.90625 Z M 4 9.90625 " fill-opacity="1" fill-rule="nonzero"/><g clip-path="url(#3ad299b924)"><path fill="#31356e" d="M 18.636719 0.992188 C 18.621094 0.992188 18.613281 0.996094 18.601562 0.996094 C 18.550781 1 18.5 1.011719 18.453125 1.027344 C 18.394531 1.046875 18.339844 1.078125 18.289062 1.113281 C 18.261719 1.128906 18.238281 1.144531 18.210938 1.164062 C 18.1875 1.195312 18.164062 1.230469 18.144531 1.269531 C 18.078125 1.363281 18.042969 1.46875 18.039062 1.589844 C 18.042969 1.703125 18.078125 1.8125 18.144531 1.90625 C 18.164062 1.945312 18.183594 1.980469 18.210938 2.011719 C 18.238281 2.03125 18.261719 2.046875 18.289062 2.0625 C 18.390625 2.140625 18.507812 2.183594 18.636719 2.183594 C 19.171875 2.183594 19.710938 2.210938 20.246094 2.265625 C 20.78125 2.316406 21.308594 2.394531 21.835938 2.5 C 22.363281 2.605469 22.886719 2.734375 23.398438 2.890625 C 23.914062 3.046875 24.421875 3.230469 24.917969 3.433594 C 25.414062 3.640625 25.898438 3.871094 26.375 4.125 C 26.847656 4.375 27.308594 4.652344 27.753906 4.953125 C 28.203125 5.25 28.632812 5.570312 29.046875 5.910156 C 29.464844 6.253906 29.863281 6.613281 30.242188 6.992188 C 30.621094 7.375 30.984375 7.769531 31.324219 8.1875 C 31.664062 8.601562 31.984375 9.035156 32.285156 9.480469 C 32.582031 9.925781 32.859375 10.386719 33.113281 10.863281 C 33.367188 11.335938 33.59375 11.820312 33.800781 12.316406 C 34.007812 12.816406 34.1875 13.320312 34.34375 13.835938 C 34.5 14.347656 34.628906 14.871094 34.734375 15.398438 C 34.839844 15.925781 34.917969 16.457031 34.972656 16.992188 C 35.023438 17.527344 35.050781 18.0625 35.050781 18.601562 C 35.050781 19.136719 35.023438 19.675781 34.972656 20.207031 C 34.917969 20.742188 34.839844 21.273438 34.734375 21.800781 C 34.628906 22.328125 34.5 22.851562 34.34375 23.363281 C 34.1875 23.878906 34.007812 24.386719 33.800781 24.882812 C 33.59375 25.378906 33.367188 25.863281 33.113281 26.335938 C 32.859375 26.8125 32.582031 27.273438 32.285156 27.71875 C 31.984375 28.167969 31.664062 28.597656 31.324219 29.011719 C 30.984375 29.429688 30.621094 29.828125 30.242188 30.207031 C 29.863281 30.585938 29.464844 30.949219 29.046875 31.289062 C 28.632812 31.628906 28.203125 31.949219 27.753906 32.25 C 27.308594 32.546875 26.847656 32.824219 26.375 33.078125 C 25.898438 33.328125 25.414062 33.558594 24.917969 33.765625 C 24.421875 33.972656 23.914062 34.152344 23.398438 34.308594 C 22.886719 34.464844 22.363281 34.59375 21.835938 34.699219 C 21.308594 34.804688 20.78125 34.882812 20.246094 34.9375 C 19.710938 34.988281 19.171875 35.015625 18.636719 35.015625 C 18.097656 35.015625 17.5625 34.988281 17.027344 34.9375 C 16.492188 34.882812 15.960938 34.804688 15.433594 34.699219 C 14.90625 34.59375 14.386719 34.464844 13.871094 34.308594 C 13.355469 34.152344 12.851562 33.972656 12.355469 33.765625 C 11.855469 33.558594 11.371094 33.328125 10.898438 33.078125 C 10.421875 32.824219 9.960938 32.546875 9.515625 32.25 C 9.070312 31.949219 8.636719 31.628906 8.222656 31.289062 C 7.804688 30.949219 7.410156 30.585938 7.027344 30.207031 C 6.648438 29.828125 6.289062 29.429688 5.945312 29.011719 C 5.605469 28.597656 5.285156 28.167969 4.988281 27.71875 C 4.6875 27.273438 4.414062 26.8125 4.160156 26.339844 C 3.90625 25.863281 3.675781 25.378906 3.46875 24.882812 C 3.265625 24.386719 3.082031 23.878906 2.925781 23.363281 C 2.769531 22.851562 2.640625 22.328125 2.535156 21.800781 C 2.429688 21.273438 2.351562 20.742188 2.300781 20.207031 C 2.246094 19.675781 2.21875 19.136719 2.21875 18.601562 C 2.222656 18.457031 2.175781 18.332031 2.085938 18.222656 C 1.996094 18.109375 1.878906 18.042969 1.742188 18.011719 C 1.601562 17.984375 1.46875 18.003906 1.34375 18.070312 C 1.21875 18.140625 1.128906 18.238281 1.074219 18.371094 C 1.042969 18.445312 1.023438 18.519531 1.023438 18.601562 C 1.023438 18.605469 1.023438 18.605469 1.023438 18.609375 C 1.023438 19.1875 1.054688 19.761719 1.109375 20.335938 C 1.167969 20.910156 1.253906 21.480469 1.363281 22.046875 C 1.476562 22.609375 1.617188 23.167969 1.785156 23.722656 C 1.953125 24.273438 2.148438 24.816406 2.367188 25.347656 C 2.589844 25.878906 2.835938 26.402344 3.109375 26.910156 C 3.378906 27.417969 3.675781 27.910156 3.996094 28.390625 C 4.316406 28.871094 4.660156 29.332031 5.027344 29.777344 C 5.394531 30.222656 5.78125 30.648438 6.1875 31.058594 C 6.597656 31.464844 7.023438 31.851562 7.46875 32.21875 C 7.914062 32.582031 8.378906 32.925781 8.859375 33.246094 C 9.335938 33.566406 9.832031 33.863281 10.339844 34.132812 C 10.847656 34.40625 11.371094 34.652344 11.902344 34.871094 C 12.433594 35.09375 12.976562 35.285156 13.53125 35.453125 C 14.082031 35.621094 14.640625 35.761719 15.207031 35.871094 C 15.769531 35.984375 16.339844 36.070312 16.914062 36.125 C 17.488281 36.179688 18.0625 36.210938 18.640625 36.210938 C 19.21875 36.207031 19.792969 36.179688 20.367188 36.125 C 20.941406 36.066406 21.507812 35.980469 22.074219 35.871094 C 22.640625 35.757812 23.199219 35.617188 23.75 35.449219 C 24.304688 35.28125 24.84375 35.085938 25.378906 34.867188 C 25.910156 34.644531 26.429688 34.398438 26.9375 34.128906 C 27.449219 33.855469 27.941406 33.558594 28.421875 33.238281 C 28.902344 32.917969 29.363281 32.574219 29.808594 32.207031 C 30.253906 31.84375 30.679688 31.457031 31.089844 31.046875 C 31.496094 30.640625 31.882812 30.214844 32.25 29.769531 C 32.613281 29.320312 32.957031 28.859375 33.277344 28.378906 C 33.597656 27.898438 33.894531 27.40625 34.164062 26.898438 C 34.4375 26.390625 34.683594 25.867188 34.902344 25.335938 C 35.125 24.800781 35.316406 24.261719 35.484375 23.707031 C 35.652344 23.15625 35.792969 22.597656 35.90625 22.03125 C 36.015625 21.464844 36.101562 20.898438 36.15625 20.324219 C 36.214844 19.75 36.242188 19.175781 36.242188 18.597656 C 36.242188 18.019531 36.214844 17.445312 36.15625 16.871094 C 36.101562 16.296875 36.015625 15.726562 35.902344 15.164062 C 35.792969 14.597656 35.652344 14.039062 35.484375 13.488281 C 35.316406 12.933594 35.121094 12.394531 34.902344 11.859375 C 34.679688 11.328125 34.433594 10.804688 34.164062 10.296875 C 33.890625 9.789062 33.59375 9.296875 33.273438 8.816406 C 32.953125 8.335938 32.609375 7.875 32.246094 7.429688 C 31.878906 6.984375 31.492188 6.554688 31.085938 6.148438 C 30.675781 5.742188 30.25 5.355469 29.804688 4.988281 C 29.359375 4.621094 28.894531 4.277344 28.417969 3.957031 C 27.9375 3.636719 27.445312 3.34375 26.933594 3.070312 C 26.425781 2.796875 25.90625 2.550781 25.371094 2.332031 C 24.839844 2.109375 24.296875 1.917969 23.746094 1.75 C 23.195312 1.582031 22.636719 1.441406 22.070312 1.328125 C 21.503906 1.21875 20.933594 1.132812 20.359375 1.074219 C 19.789062 1.019531 19.210938 0.992188 18.636719 0.992188 Z M 18.636719 0.992188 " fill-opacity="1" fill-rule="nonzero"/></g></svg>