<svg xmlns="http://www.w3.org/2000/svg" xmlns:xlink="http://www.w3.org/1999/xlink" width="50" zoomAndPan="magnify" viewBox="0 0 37.5 37.499999" height="50" preserveAspectRatio="xMidYMid meet" version="1.0"><defs><clipPath id="7dd21b7788"><path d="M 4.050781 0.375 L 33.300781 0.375 L 33.300781 37.007812 L 4.050781 37.007812 Z M 4.050781 0.375 " clip-rule="nonzero"/></clipPath></defs><g clip-path="url(#7dd21b7788)"><path fill="#31356e" d="M 5.269531 2.832031 C 5.269531 2.15625 5.816406 1.605469 6.488281 1.605469 L 27.816406 1.605469 L 27.816406 3.441406 C 27.816406 4.792969 28.910156 5.890625 30.253906 5.890625 L 32.082031 5.890625 L 32.082031 34.667969 C 32.082031 35.34375 31.535156 35.894531 30.863281 35.894531 L 6.488281 35.894531 C 5.816406 35.894531 5.269531 35.34375 5.269531 34.667969 Z M 31.21875 4.667969 L 30.253906 4.667969 C 29.582031 4.667969 29.035156 4.117188 29.035156 3.441406 L 29.035156 2.472656 Z M 6.488281 37.117188 L 30.863281 37.117188 C 32.207031 37.117188 33.300781 36.019531 33.300781 34.667969 L 33.300781 5.785156 C 33.300781 5.527344 33.246094 5.28125 33.144531 5.050781 C 33.136719 5.039062 33.132812 5.027344 33.125 5.015625 C 33.035156 4.824219 32.917969 4.644531 32.765625 4.488281 L 29.214844 0.917969 C 29.058594 0.761719 28.878906 0.644531 28.683594 0.554688 C 28.671875 0.546875 28.664062 0.542969 28.652344 0.539062 C 28.425781 0.4375 28.175781 0.382812 27.921875 0.382812 L 6.488281 0.382812 C 5.144531 0.382812 4.050781 1.480469 4.050781 2.832031 L 4.050781 34.667969 C 4.050781 36.019531 5.144531 37.117188 6.488281 37.117188 " fill-opacity="1" fill-rule="nonzero"/></g><path fill="#31356e" d="M 8.925781 8.953125 C 8.925781 8.617188 9.199219 8.339844 9.535156 8.339844 L 13.191406 8.339844 C 13.453125 8.339844 13.671875 8.507812 13.757812 8.742188 L 11.972656 10.535156 L 11.183594 9.746094 C 10.945312 9.503906 10.558594 9.503906 10.324219 9.746094 C 10.085938 9.984375 10.085938 10.371094 10.324219 10.609375 L 11.542969 11.835938 C 11.660156 11.953125 11.816406 12.015625 11.972656 12.015625 C 12.128906 12.015625 12.285156 11.953125 12.402344 11.835938 L 13.800781 10.429688 L 13.800781 12.628906 C 13.800781 12.964844 13.527344 13.238281 13.191406 13.238281 L 9.535156 13.238281 C 9.199219 13.238281 8.925781 12.964844 8.925781 12.628906 Z M 9.535156 14.464844 L 13.191406 14.464844 C 14.199219 14.464844 15.019531 13.640625 15.019531 12.628906 L 15.019531 9.207031 L 16.667969 7.550781 C 16.90625 7.308594 16.90625 6.921875 16.667969 6.683594 C 16.429688 6.445312 16.042969 6.445312 15.808594 6.683594 L 14.644531 7.851562 C 14.308594 7.40625 13.785156 7.117188 13.191406 7.117188 L 9.535156 7.117188 C 8.523438 7.117188 7.707031 7.9375 7.707031 8.953125 L 7.707031 12.628906 C 7.707031 13.640625 8.523438 14.464844 9.535156 14.464844 " fill-opacity="1" fill-rule="nonzero"/><path fill="#31356e" d="M 8.925781 17.527344 C 8.925781 17.1875 9.199219 16.914062 9.535156 16.914062 L 13.191406 16.914062 C 13.527344 16.914062 13.800781 17.1875 13.800781 17.527344 L 13.800781 21.199219 C 13.800781 21.535156 13.527344 21.8125 13.191406 21.8125 L 9.535156 21.8125 C 9.199219 21.8125 8.925781 21.535156 8.925781 21.199219 Z M 9.535156 23.035156 L 13.191406 23.035156 C 14.199219 23.035156 15.019531 22.214844 15.019531 21.199219 L 15.019531 17.527344 C 15.019531 16.511719 14.199219 15.6875 13.191406 15.6875 L 9.535156 15.6875 C 8.523438 15.6875 7.707031 16.511719 7.707031 17.527344 L 7.707031 21.199219 C 7.707031 22.214844 8.523438 23.035156 9.535156 23.035156 " fill-opacity="1" fill-rule="nonzero"/><path fill="#31356e" d="M 8.925781 26.097656 C 8.925781 25.761719 9.199219 25.484375 9.535156 25.484375 L 13.191406 25.484375 C 13.527344 25.484375 13.800781 25.761719 13.800781 26.097656 L 13.800781 29.769531 C 13.800781 30.109375 13.527344 30.382812 13.191406 30.382812 L 9.535156 30.382812 C 9.199219 30.382812 8.925781 30.109375 8.925781 29.769531 Z M 9.535156 31.609375 L 13.191406 31.609375 C 14.199219 31.609375 15.019531 30.785156 15.019531 29.769531 L 15.019531 26.097656 C 15.019531 25.082031 14.199219 24.261719 13.191406 24.261719 L 9.535156 24.261719 C 8.523438 24.261719 7.707031 25.082031 7.707031 26.097656 L 7.707031 29.769531 C 7.707031 30.785156 8.523438 31.609375 9.535156 31.609375 " fill-opacity="1" fill-rule="nonzero"/><path fill="#31356e" d="M 18.675781 9.566406 L 29.035156 9.566406 C 29.371094 9.566406 29.644531 9.289062 29.644531 8.953125 C 29.644531 8.617188 29.371094 8.339844 29.035156 8.339844 L 18.675781 8.339844 C 18.339844 8.339844 18.066406 8.617188 18.066406 8.953125 C 18.066406 9.289062 18.339844 9.566406 18.675781 9.566406 " fill-opacity="1" fill-rule="nonzero"/><path fill="#31356e" d="M 18.675781 12.628906 L 24.769531 12.628906 C 25.105469 12.628906 25.378906 12.351562 25.378906 12.015625 C 25.378906 11.675781 25.105469 11.402344 24.769531 11.402344 L 18.675781 11.402344 C 18.339844 11.402344 18.066406 11.675781 18.066406 12.015625 C 18.066406 12.351562 18.339844 12.628906 18.675781 12.628906 " fill-opacity="1" fill-rule="nonzero"/><path fill="#31356e" d="M 18.675781 18.136719 L 29.035156 18.136719 C 29.371094 18.136719 29.644531 17.863281 29.644531 17.527344 C 29.644531 17.1875 29.371094 16.914062 29.035156 16.914062 L 18.675781 16.914062 C 18.339844 16.914062 18.066406 17.1875 18.066406 17.527344 C 18.066406 17.863281 18.339844 18.136719 18.675781 18.136719 " fill-opacity="1" fill-rule="nonzero"/><path fill="#31356e" d="M 18.675781 21.199219 L 24.769531 21.199219 C 25.105469 21.199219 25.378906 20.925781 25.378906 20.585938 C 25.378906 20.25 25.105469 19.976562 24.769531 19.976562 L 18.675781 19.976562 C 18.339844 19.976562 18.066406 20.25 18.066406 20.585938 C 18.066406 20.925781 18.339844 21.199219 18.675781 21.199219 " fill-opacity="1" fill-rule="nonzero"/><path fill="#31356e" d="M 18.675781 26.710938 L 29.035156 26.710938 C 29.371094 26.710938 29.644531 26.433594 29.644531 26.097656 C 29.644531 25.761719 29.371094 25.484375 29.035156 25.484375 L 18.675781 25.484375 C 18.339844 25.484375 18.066406 25.761719 18.066406 26.097656 C 18.066406 26.433594 18.339844 26.710938 18.675781 26.710938 " fill-opacity="1" fill-rule="nonzero"/><path fill="#31356e" d="M 18.675781 29.769531 L 24.769531 29.769531 C 25.105469 29.769531 25.378906 29.496094 25.378906 29.160156 C 25.378906 28.820312 25.105469 28.546875 24.769531 28.546875 L 18.675781 28.546875 C 18.339844 28.546875 18.066406 28.820312 18.066406 29.160156 C 18.066406 29.496094 18.339844 29.769531 18.675781 29.769531 " fill-opacity="1" fill-rule="nonzero"/></svg>