<svg xmlns="http://www.w3.org/2000/svg" xmlns:xlink="http://www.w3.org/1999/xlink" width="50" zoomAndPan="magnify" viewBox="0 0 37.5 37.499999" height="50" preserveAspectRatio="xMidYMid meet" version="1.0"><defs><clipPath id="8014a7041b"><path d="M 1.03125 1.074219 L 36.28125 1.074219 L 36.28125 36.324219 L 1.03125 36.324219 Z M 1.03125 1.074219 " clip-rule="nonzero"/></clipPath></defs><g clip-path="url(#8014a7041b)"><path fill="#31356e" d="M 35.804688 24.175781 C 36.011719 23.855469 36.269531 23.457031 36.179688 22.949219 C 36.125 22.640625 35.957031 22.378906 35.8125 22.152344 C 35.714844 22.003906 35.609375 21.839844 35.589844 21.734375 C 35.570312 21.628906 35.613281 21.433594 35.652344 21.261719 C 35.730469 20.9375 35.8125 20.566406 35.675781 20.1875 C 35.539062 19.804688 35.21875 19.558594 34.960938 19.363281 C 34.824219 19.261719 34.671875 19.144531 34.621094 19.0625 C 34.570312 18.972656 34.546875 18.777344 34.523438 18.605469 C 34.484375 18.285156 34.433594 17.890625 34.175781 17.582031 C 33.914062 17.269531 33.53125 17.152344 33.226562 17.058594 C 33.058594 17.007812 32.875 16.949219 32.796875 16.886719 C 32.722656 16.820312 32.632812 16.648438 32.554688 16.492188 C 32.40625 16.207031 32.226562 15.851562 31.875 15.648438 C 31.527344 15.445312 31.128906 15.464844 30.808594 15.480469 C 30.636719 15.488281 30.4375 15.5 30.34375 15.464844 C 30.300781 15.449219 30.246094 15.410156 30.1875 15.363281 C 30.105469 11.570312 28.589844 8.015625 25.902344 5.332031 C 23.152344 2.585938 19.5 1.074219 15.617188 1.074219 C 7.578125 1.074219 1.042969 7.628906 1.042969 15.6875 C 1.042969 23.746094 7.578125 30.304688 15.617188 30.304688 C 17.640625 30.304688 19.597656 29.894531 21.4375 29.089844 C 21.464844 29.105469 21.492188 29.117188 21.519531 29.128906 L 19.460938 33.5625 C 19.371094 33.753906 19.398438 33.980469 19.527344 34.148438 C 19.652344 34.316406 19.863281 34.398438 20.074219 34.363281 L 22.457031 33.945312 L 23.671875 36.042969 C 23.773438 36.21875 23.960938 36.324219 24.164062 36.324219 C 24.171875 36.324219 24.179688 36.324219 24.1875 36.324219 C 24.398438 36.3125 24.585938 36.1875 24.675781 35.996094 L 26.699219 31.636719 C 26.84375 31.59375 26.980469 31.535156 27.109375 31.480469 C 27.269531 31.414062 27.449219 31.335938 27.554688 31.335938 C 27.648438 31.335938 27.824219 31.410156 27.980469 31.476562 C 28.242188 31.589844 28.558594 31.722656 28.902344 31.707031 L 30.367188 35.113281 C 30.449219 35.308594 30.636719 35.4375 30.847656 35.453125 C 30.859375 35.457031 30.875 35.457031 30.886719 35.457031 C 31.082031 35.457031 31.265625 35.355469 31.371094 35.1875 L 32.644531 33.125 L 35.015625 33.613281 C 35.222656 33.65625 35.4375 33.578125 35.570312 33.414062 C 35.703125 33.25 35.734375 33.023438 35.652344 32.832031 L 33.96875 28.917969 C 34.042969 28.863281 34.113281 28.800781 34.175781 28.726562 C 34.433594 28.414062 34.484375 28.015625 34.523438 27.699219 C 34.546875 27.527344 34.570312 27.332031 34.621094 27.246094 C 34.667969 27.160156 34.824219 27.039062 34.960938 26.9375 C 35.21875 26.742188 35.539062 26.5 35.675781 26.117188 C 35.816406 25.738281 35.726562 25.351562 35.65625 25.039062 C 35.617188 24.867188 35.574219 24.675781 35.589844 24.574219 C 35.609375 24.476562 35.710938 24.316406 35.804688 24.175781 Z M 2.175781 15.6875 C 2.175781 8.257812 8.207031 2.210938 15.617188 2.210938 C 22.652344 2.210938 28.464844 7.6875 29.015625 14.609375 C 28.636719 14.554688 28.296875 14.699219 27.996094 14.824219 C 27.835938 14.894531 27.65625 14.96875 27.550781 14.96875 C 27.457031 14.96875 27.28125 14.894531 27.125 14.828125 C 26.828125 14.703125 26.457031 14.546875 26.050781 14.617188 C 25.644531 14.691406 25.351562 14.964844 25.113281 15.183594 C 24.992188 15.300781 24.851562 15.429688 24.761719 15.464844 C 24.664062 15.5 24.46875 15.488281 24.292969 15.480469 C 23.957031 15.464844 23.578125 15.445312 23.230469 15.644531 C 22.875 15.851562 22.695312 16.207031 22.546875 16.496094 C 22.46875 16.648438 22.382812 16.820312 22.304688 16.886719 C 22.230469 16.949219 22.042969 17.007812 21.875 17.058594 C 21.75 17.097656 21.613281 17.140625 21.476562 17.199219 C 20.527344 16.214844 19.359375 15.492188 18.078125 15.085938 C 19.246094 14.289062 20.015625 12.949219 20.015625 11.429688 C 20.015625 9 18.042969 7.023438 15.617188 7.023438 C 13.191406 7.023438 11.21875 9 11.21875 11.429688 C 11.21875 12.949219 11.988281 14.289062 13.15625 15.082031 C 9.867188 16.132812 7.472656 19.226562 7.472656 22.867188 C 7.472656 23.179688 7.726562 23.4375 8.042969 23.4375 L 18.941406 23.4375 C 19.011719 23.710938 19.160156 23.945312 19.296875 24.15625 C 19.390625 24.300781 19.496094 24.46875 19.515625 24.574219 C 19.535156 24.679688 19.492188 24.875 19.453125 25.042969 C 19.375 25.371094 19.292969 25.738281 19.429688 26.117188 C 19.566406 26.503906 19.886719 26.746094 20.144531 26.941406 C 20.28125 27.046875 20.4375 27.160156 20.484375 27.246094 C 20.535156 27.335938 20.558594 27.53125 20.582031 27.703125 C 20.601562 27.851562 20.621094 28.015625 20.664062 28.183594 C 19.0625 28.835938 17.367188 29.167969 15.617188 29.167969 C 8.207031 29.167969 2.175781 23.121094 2.175781 15.6875 Z M 19.449219 21.269531 C 19.488281 21.4375 19.53125 21.628906 19.515625 21.730469 C 19.496094 21.828125 19.394531 21.988281 19.300781 22.132812 C 19.265625 22.183594 19.230469 22.242188 19.195312 22.296875 L 8.632812 22.296875 C 8.921875 18.6875 11.945312 15.839844 15.617188 15.839844 C 17.542969 15.839844 19.371094 16.632812 20.695312 18.023438 C 20.628906 18.222656 20.605469 18.429688 20.582031 18.609375 C 20.558594 18.78125 20.535156 18.976562 20.484375 19.0625 C 20.4375 19.148438 20.28125 19.265625 20.144531 19.371094 C 19.886719 19.5625 19.566406 19.804688 19.429688 20.1875 C 19.289062 20.570312 19.378906 20.957031 19.449219 21.269531 Z M 15.617188 14.703125 C 13.816406 14.703125 12.355469 13.234375 12.355469 11.429688 C 12.355469 9.625 13.816406 8.160156 15.617188 8.160156 C 17.417969 8.160156 18.878906 9.625 18.878906 11.429688 C 18.878906 13.234375 17.417969 14.703125 15.617188 14.703125 Z M 24.105469 34.527344 L 23.238281 33.03125 C 23.121094 32.824219 22.882812 32.714844 22.652344 32.753906 L 20.949219 33.054688 L 22.5 29.714844 C 22.515625 29.746094 22.535156 29.78125 22.550781 29.8125 C 22.699219 30.101562 22.878906 30.457031 23.230469 30.660156 C 23.578125 30.863281 23.976562 30.84375 24.296875 30.828125 C 24.46875 30.820312 24.667969 30.808594 24.761719 30.84375 C 24.851562 30.878906 24.996094 31.007812 25.121094 31.125 C 25.238281 31.238281 25.375 31.363281 25.527344 31.46875 Z M 32.484375 31.933594 C 32.253906 31.882812 32.015625 31.988281 31.890625 32.191406 L 30.980469 33.664062 L 29.917969 31.191406 C 29.941406 31.167969 29.96875 31.144531 29.992188 31.121094 C 30.113281 31.007812 30.253906 30.875 30.34375 30.84375 C 30.441406 30.808594 30.636719 30.816406 30.8125 30.828125 C 31.148438 30.84375 31.527344 30.863281 31.875 30.660156 C 32.230469 30.457031 32.410156 30.097656 32.558594 29.8125 C 32.636719 29.660156 32.722656 29.484375 32.800781 29.421875 C 32.828125 29.398438 32.871094 29.375 32.921875 29.351562 L 34.179688 32.28125 Z M 35.0625 23.148438 C 35.074219 23.214844 34.929688 23.4375 34.851562 23.554688 C 34.703125 23.789062 34.53125 24.054688 34.472656 24.378906 C 34.417969 24.707031 34.488281 25.015625 34.550781 25.292969 C 34.582031 25.429688 34.636719 25.664062 34.613281 25.730469 C 34.585938 25.796875 34.394531 25.941406 34.277344 26.03125 C 34.054688 26.199219 33.804688 26.390625 33.636719 26.675781 C 33.472656 26.960938 33.433594 27.277344 33.398438 27.558594 C 33.382812 27.699219 33.351562 27.941406 33.304688 27.996094 C 33.261719 28.046875 33.03125 28.117188 32.894531 28.160156 C 32.625 28.246094 32.324219 28.339844 32.070312 28.550781 C 31.816406 28.761719 31.675781 29.046875 31.546875 29.292969 C 31.480469 29.421875 31.371094 29.640625 31.308594 29.675781 C 31.246094 29.710938 31.007812 29.699219 30.867188 29.691406 C 30.585938 29.675781 30.269531 29.660156 29.957031 29.773438 C 29.652344 29.886719 29.421875 30.101562 29.21875 30.289062 C 29.105469 30.394531 28.933594 30.554688 28.855469 30.570312 C 28.78125 30.582031 28.566406 30.492188 28.421875 30.429688 C 28.167969 30.320312 27.878906 30.199219 27.554688 30.199219 C 27.550781 30.199219 27.550781 30.199219 27.550781 30.199219 C 27.222656 30.199219 26.925781 30.324219 26.667969 30.433594 C 26.535156 30.488281 26.316406 30.582031 26.25 30.570312 C 26.175781 30.558594 26 30.394531 25.894531 30.292969 C 25.6875 30.105469 25.457031 29.886719 25.148438 29.773438 C 24.945312 29.699219 24.738281 29.679688 24.539062 29.679688 C 24.4375 29.679688 24.335938 29.6875 24.242188 29.691406 C 24.097656 29.699219 23.859375 29.710938 23.796875 29.675781 C 23.738281 29.640625 23.625 29.425781 23.5625 29.296875 C 23.433594 29.046875 23.289062 28.761719 23.035156 28.550781 C 22.785156 28.339844 22.480469 28.246094 22.214844 28.164062 C 22.074219 28.121094 21.84375 28.050781 21.796875 27.996094 C 21.753906 27.941406 21.722656 27.703125 21.707031 27.5625 C 21.671875 27.28125 21.632812 26.964844 21.464844 26.675781 C 21.304688 26.394531 21.050781 26.203125 20.828125 26.035156 C 20.714844 25.949219 20.519531 25.800781 20.496094 25.730469 C 20.472656 25.664062 20.523438 25.4375 20.554688 25.300781 C 20.621094 25.023438 20.691406 24.710938 20.632812 24.375 C 20.574219 24.042969 20.402344 23.773438 20.246094 23.535156 C 20.164062 23.40625 20.058594 23.242188 20.042969 23.160156 C 20.03125 23.09375 20.175781 22.871094 20.253906 22.75 C 20.402344 22.519531 20.574219 22.253906 20.632812 21.929688 C 20.6875 21.601562 20.617188 21.289062 20.554688 21.015625 C 20.523438 20.875 20.46875 20.644531 20.492188 20.578125 C 20.519531 20.511719 20.710938 20.363281 20.828125 20.277344 C 21.050781 20.109375 21.304688 19.917969 21.46875 19.632812 C 21.632812 19.34375 21.671875 19.027344 21.707031 18.75 C 21.722656 18.605469 21.753906 18.367188 21.800781 18.3125 C 21.84375 18.257812 22.074219 18.1875 22.210938 18.144531 C 22.480469 18.0625 22.785156 17.96875 23.035156 17.753906 C 23.289062 17.542969 23.429688 17.261719 23.558594 17.011719 C 23.625 16.882812 23.734375 16.667969 23.796875 16.628906 C 23.859375 16.597656 24.097656 16.609375 24.238281 16.617188 C 24.519531 16.628906 24.835938 16.644531 25.148438 16.53125 C 25.453125 16.421875 25.683594 16.207031 25.886719 16.019531 C 26 15.910156 26.171875 15.75 26.25 15.738281 C 26.324219 15.726562 26.539062 15.816406 26.683594 15.878906 C 26.9375 15.984375 27.226562 16.109375 27.550781 16.109375 C 27.554688 16.109375 27.554688 16.109375 27.554688 16.109375 C 27.882812 16.105469 28.179688 15.984375 28.4375 15.875 C 28.566406 15.816406 28.785156 15.726562 28.855469 15.734375 C 28.929688 15.75 29.105469 15.914062 29.210938 16.011719 C 29.417969 16.203125 29.648438 16.417969 29.957031 16.53125 C 30.265625 16.644531 30.582031 16.628906 30.863281 16.617188 C 31.007812 16.609375 31.246094 16.597656 31.308594 16.632812 C 31.367188 16.667969 31.480469 16.882812 31.542969 17.011719 C 31.671875 17.261719 31.816406 17.542969 32.070312 17.757812 C 32.320312 17.96875 32.625 18.0625 32.890625 18.144531 C 33.03125 18.1875 33.261719 18.257812 33.308594 18.3125 C 33.351562 18.367188 33.382812 18.605469 33.398438 18.746094 C 33.433594 19.023438 33.472656 19.339844 33.640625 19.628906 C 33.800781 19.914062 34.054688 20.105469 34.277344 20.273438 C 34.398438 20.367188 34.585938 20.507812 34.609375 20.578125 C 34.632812 20.640625 34.582031 20.871094 34.550781 21.007812 C 34.484375 21.285156 34.414062 21.597656 34.472656 21.929688 C 34.53125 22.261719 34.703125 22.53125 34.859375 22.769531 C 34.945312 22.902344 35.046875 23.0625 35.0625 23.148438 Z M 27.554688 17.066406 C 24.203125 17.066406 21.480469 19.796875 21.480469 23.152344 C 21.480469 26.511719 24.203125 29.242188 27.554688 29.242188 C 30.902344 29.242188 33.625 26.511719 33.625 23.152344 C 33.625 19.796875 30.902344 17.066406 27.554688 17.066406 Z M 27.554688 28.105469 C 24.828125 28.105469 22.613281 25.882812 22.613281 23.152344 C 22.613281 20.421875 24.828125 18.203125 27.554688 18.203125 C 30.277344 18.203125 32.492188 20.421875 32.492188 23.152344 C 32.492188 25.882812 30.277344 28.105469 27.554688 28.105469 Z M 28.878906 21.246094 L 28.078125 19.28125 C 27.992188 19.066406 27.78125 18.929688 27.554688 18.929688 C 27.324219 18.929688 27.113281 19.066406 27.027344 19.28125 L 26.226562 21.246094 L 24.117188 21.402344 C 23.886719 21.421875 23.6875 21.574219 23.617188 21.792969 C 23.546875 22.015625 23.613281 22.253906 23.789062 22.402344 L 25.40625 23.773438 L 24.902344 25.835938 C 24.847656 26.0625 24.933594 26.296875 25.121094 26.433594 C 25.308594 26.566406 25.558594 26.578125 25.753906 26.457031 L 27.554688 25.339844 L 29.351562 26.457031 C 29.445312 26.511719 29.546875 26.542969 29.652344 26.542969 C 29.769531 26.542969 29.886719 26.503906 29.984375 26.433594 C 30.171875 26.296875 30.257812 26.0625 30.203125 25.835938 L 29.699219 23.773438 L 31.316406 22.402344 C 31.492188 22.253906 31.558594 22.015625 31.488281 21.792969 C 31.417969 21.574219 31.21875 21.421875 30.992188 21.402344 Z M 28.699219 23.132812 C 28.53125 23.273438 28.460938 23.496094 28.511719 23.703125 L 28.769531 24.757812 L 27.851562 24.1875 C 27.667969 24.074219 27.4375 24.074219 27.253906 24.1875 L 26.335938 24.757812 L 26.59375 23.703125 C 26.644531 23.496094 26.574219 23.273438 26.40625 23.132812 L 25.582031 22.433594 L 26.660156 22.355469 C 26.875 22.339844 27.0625 22.203125 27.144531 22.003906 L 27.550781 21 L 27.960938 22.003906 C 28.042969 22.203125 28.230469 22.339844 28.445312 22.355469 L 29.523438 22.433594 Z M 28.699219 23.132812 " fill-opacity="1" fill-rule="nonzero"/></g></svg>