<svg xmlns="http://www.w3.org/2000/svg" xmlns:xlink="http://www.w3.org/1999/xlink" width="50" zoomAndPan="magnify" viewBox="0 0 37.5 37.499999" height="50" preserveAspectRatio="xMidYMid meet" version="1.0"><defs><clipPath id="e1ec90f612"><path d="M 15 1.167969 L 23 1.167969 L 23 15 L 15 15 Z M 15 1.167969 " clip-rule="nonzero"/></clipPath><clipPath id="16619f3ddd"><path d="M 6 1.167969 L 14 1.167969 L 14 15 L 6 15 Z M 6 1.167969 " clip-rule="nonzero"/></clipPath><clipPath id="2b525c4e28"><path d="M 0.601562 7 L 36.601562 7 L 36.601562 36 L 0.601562 36 Z M 0.601562 7 " clip-rule="nonzero"/></clipPath></defs><g clip-path="url(#e1ec90f612)"><path fill="#31356e" d="M 19.691406 2.636719 L 20.566406 4.085938 C 19.335938 4.988281 18.71875 6.335938 18.539062 7.558594 C 18.492188 7.882812 18.738281 8.175781 19.0625 8.175781 L 20.480469 8.175781 C 21.015625 8.175781 21.429688 8.59375 21.429688 9.132812 L 21.429688 12.734375 C 21.429688 13.273438 21.015625 13.691406 20.480469 13.691406 L 17.445312 13.691406 C 16.917969 13.691406 16.507812 13.273438 16.507812 12.734375 L 16.507812 8.492188 C 16.507812 6.183594 17.808594 3.90625 19.691406 2.636719 Z M 19.566406 1.316406 C 17.003906 2.625 15.445312 5.605469 15.445312 8.492188 C 15.445312 9.90625 15.445312 12.734375 15.445312 12.734375 C 15.445312 13.847656 16.34375 14.765625 17.449219 14.765625 L 20.484375 14.765625 C 21.585938 14.765625 22.492188 13.851562 22.492188 12.734375 L 22.492188 9.136719 C 22.492188 8.019531 21.585938 7.101562 20.484375 7.101562 L 19.710938 7.101562 C 19.980469 6.207031 20.554688 5.285156 21.558594 4.730469 C 21.828125 4.582031 21.917969 4.238281 21.757812 3.976562 L 20.257812 1.511719 C 20.054688 1.183594 19.835938 1.179688 19.566406 1.316406 Z M 19.566406 1.316406 " fill-opacity="1" fill-rule="evenodd"/></g><g clip-path="url(#16619f3ddd)"><path fill="#31356e" d="M 11.105469 2.636719 L 11.980469 4.085938 C 10.753906 4.988281 10.132812 6.335938 9.957031 7.558594 C 9.90625 7.882812 10.15625 8.175781 10.476562 8.175781 L 11.898438 8.175781 C 12.429688 8.175781 12.84375 8.59375 12.84375 9.132812 L 12.84375 12.734375 C 12.84375 13.273438 12.429688 13.691406 11.898438 13.691406 L 8.863281 13.691406 C 8.328125 13.691406 7.921875 13.273438 7.921875 12.734375 L 7.921875 8.492188 C 7.921875 6.183594 9.222656 3.90625 11.105469 2.636719 Z M 10.980469 1.316406 C 8.417969 2.625 6.855469 5.605469 6.855469 8.492188 C 6.855469 9.90625 6.855469 12.734375 6.855469 12.734375 C 6.855469 13.847656 7.757812 14.765625 8.863281 14.765625 L 11.898438 14.765625 C 13 14.765625 13.910156 13.851562 13.910156 12.734375 L 13.910156 9.136719 C 13.910156 8.019531 13 7.101562 11.898438 7.101562 L 11.128906 7.101562 C 11.390625 6.207031 11.972656 5.285156 12.972656 4.730469 C 13.242188 4.582031 13.332031 4.238281 13.171875 3.976562 L 11.671875 1.511719 C 11.46875 1.183594 11.25 1.179688 10.980469 1.316406 Z M 10.980469 1.316406 " fill-opacity="1" fill-rule="evenodd"/></g><g clip-path="url(#2b525c4e28)"><path fill="#31356e" d="M 5.101562 7.101562 C 2.65625 7.101562 0.671875 9.109375 0.671875 11.582031 L 0.671875 26.734375 C 0.671875 29.207031 2.65625 31.210938 5.101562 31.210938 L 15.136719 31.210938 L 18.140625 35.050781 C 19.203125 36.402344 21.273438 35.6875 21.273438 34.148438 L 21.273438 31.210938 L 32.058594 31.210938 C 34.503906 31.210938 36.484375 29.203125 36.484375 26.734375 L 36.484375 11.582031 C 36.484375 9.109375 34.503906 7.101562 32.058594 7.101562 L 24.25 7.101562 C 23.53125 7.089844 23.53125 8.1875 24.25 8.179688 L 32.058594 8.179688 C 33.933594 8.179688 35.421875 9.683594 35.421875 11.582031 L 35.421875 26.734375 C 35.421875 28.628906 33.933594 30.136719 32.058594 30.136719 L 20.742188 30.136719 C 20.449219 30.136719 20.210938 30.378906 20.210938 30.675781 L 20.210938 34.023438 C 20.210938 34.957031 19.3125 34.816406 18.957031 34.359375 L 15.808594 30.339844 C 15.710938 30.210938 15.554688 30.140625 15.394531 30.140625 L 5.101562 30.140625 C 3.226562 30.140625 1.734375 28.632812 1.734375 26.734375 L 1.734375 11.582031 C 1.734375 9.6875 3.226562 8.179688 5.101562 8.179688 C 5.820312 8.1875 5.820312 7.089844 5.101562 7.101562 Z M 5.101562 7.101562 " fill-opacity="1" fill-rule="evenodd"/></g><path fill="#31356e" d="M 8.4375 19.382812 L 9.242188 21.042969 C 9.320312 21.199219 9.472656 21.308594 9.648438 21.332031 L 11.441406 21.597656 L 10.164062 22.742188 C 10.027344 22.863281 9.964844 23.046875 9.988281 23.230469 L 10.304688 25.1875 L 8.683594 24.332031 C 8.53125 24.246094 8.347656 24.246094 8.195312 24.332031 L 6.574219 25.1875 L 6.882812 23.230469 C 6.914062 23.046875 6.847656 22.863281 6.714844 22.742188 L 5.4375 21.597656 L 7.230469 21.332031 C 7.40625 21.308594 7.554688 21.199219 7.632812 21.042969 Z M 8.4375 18.085938 C 8.023438 18.085938 7.734375 18.390625 7.582031 18.710938 L 6.800781 20.308594 L 5.019531 20.574219 C 4.839844 20.601562 4.683594 20.636719 4.523438 20.722656 C 4.355469 20.808594 4.171875 20.984375 4.117188 21.222656 C 4.0625 21.464844 4.136719 21.675781 4.21875 21.824219 C 4.300781 21.972656 4.402344 22.105469 4.53125 22.21875 L 5.789062 23.355469 L 5.5 25.15625 C 5.46875 25.34375 5.453125 25.515625 5.472656 25.691406 C 5.488281 25.867188 5.542969 26.078125 5.71875 26.242188 C 5.894531 26.410156 6.15625 26.460938 6.335938 26.433594 C 6.523438 26.414062 6.667969 26.351562 6.816406 26.273438 L 8.433594 25.414062 L 10.054688 26.273438 C 10.207031 26.351562 10.347656 26.414062 10.535156 26.433594 C 10.71875 26.460938 10.976562 26.410156 11.152344 26.242188 C 11.328125 26.078125 11.382812 25.867188 11.402344 25.691406 C 11.417969 25.515625 11.402344 25.347656 11.371094 25.15625 L 11.082031 23.355469 L 12.347656 22.214844 C 12.476562 22.097656 12.570312 21.972656 12.652344 21.824219 C 12.738281 21.675781 12.816406 21.464844 12.757812 21.222656 C 12.699219 20.984375 12.515625 20.808594 12.355469 20.722656 C 12.195312 20.636719 12.03125 20.601562 11.855469 20.574219 L 10.074219 20.308594 L 9.296875 18.710938 C 9.140625 18.390625 8.851562 18.085938 8.4375 18.085938 Z M 8.4375 18.085938 " fill-opacity="1" fill-rule="nonzero"/><path fill="#31356e" d="M 18.574219 19.382812 L 19.378906 21.042969 C 19.460938 21.199219 19.609375 21.308594 19.785156 21.332031 L 21.578125 21.597656 L 20.304688 22.742188 C 20.167969 22.863281 20.101562 23.046875 20.128906 23.230469 L 20.445312 25.1875 L 18.824219 24.332031 C 18.671875 24.246094 18.488281 24.246094 18.332031 24.332031 L 16.710938 25.1875 L 17.023438 23.230469 C 17.050781 23.046875 16.988281 22.863281 16.851562 22.742188 L 15.578125 21.597656 L 17.371094 21.332031 C 17.542969 21.308594 17.691406 21.199219 17.769531 21.042969 Z M 18.574219 18.085938 C 18.164062 18.085938 17.875 18.390625 17.71875 18.710938 L 16.941406 20.308594 L 15.160156 20.574219 C 14.980469 20.601562 14.824219 20.636719 14.660156 20.722656 C 14.5 20.808594 14.316406 20.984375 14.257812 21.222656 C 14.199219 21.464844 14.273438 21.675781 14.355469 21.824219 C 14.441406 21.972656 14.542969 22.105469 14.671875 22.21875 L 15.925781 23.355469 L 15.640625 25.15625 C 15.605469 25.34375 15.59375 25.515625 15.609375 25.691406 C 15.628906 25.867188 15.683594 26.078125 15.859375 26.242188 C 16.035156 26.410156 16.296875 26.460938 16.480469 26.433594 C 16.660156 26.414062 16.808594 26.351562 16.957031 26.273438 L 18.574219 25.414062 L 20.195312 26.273438 C 20.34375 26.351562 20.488281 26.414062 20.671875 26.433594 C 20.855469 26.460938 21.117188 26.410156 21.292969 26.242188 C 21.46875 26.078125 21.523438 25.867188 21.539062 25.691406 C 21.558594 25.515625 21.542969 25.347656 21.511719 25.15625 L 21.226562 23.355469 L 22.488281 22.214844 C 22.613281 22.097656 22.710938 21.972656 22.792969 21.824219 C 22.878906 21.675781 22.953125 21.464844 22.898438 21.222656 C 22.84375 20.984375 22.660156 20.808594 22.496094 20.722656 C 22.332031 20.636719 22.171875 20.601562 21.992188 20.574219 L 20.210938 20.308594 L 19.4375 18.710938 C 19.28125 18.390625 18.992188 18.085938 18.574219 18.085938 Z M 18.574219 18.085938 " fill-opacity="1" fill-rule="nonzero"/><path fill="#31356e" d="M 28.71875 19.382812 L 29.527344 21.042969 C 29.601562 21.199219 29.753906 21.308594 29.925781 21.332031 L 31.722656 21.597656 L 30.445312 22.742188 C 30.308594 22.863281 30.242188 23.046875 30.273438 23.230469 L 30.589844 25.1875 L 28.96875 24.332031 C 28.8125 24.246094 28.628906 24.246094 28.472656 24.332031 L 26.855469 25.1875 L 27.167969 23.230469 C 27.195312 23.046875 27.132812 22.863281 26.996094 22.742188 L 25.722656 21.597656 L 27.515625 21.332031 C 27.6875 21.308594 27.839844 21.199219 27.914062 21.042969 Z M 28.71875 18.085938 C 28.304688 18.085938 28.019531 18.390625 27.863281 18.710938 L 27.082031 20.308594 L 25.300781 20.574219 C 25.125 20.601562 24.964844 20.636719 24.800781 20.722656 C 24.640625 20.808594 24.457031 20.984375 24.402344 21.222656 C 24.34375 21.464844 24.414062 21.675781 24.5 21.824219 C 24.582031 21.972656 24.683594 22.105469 24.8125 22.21875 L 26.070312 23.355469 L 25.78125 25.15625 C 25.75 25.34375 25.738281 25.515625 25.753906 25.691406 C 25.773438 25.867188 25.828125 26.078125 26.003906 26.242188 C 26.179688 26.410156 26.4375 26.460938 26.621094 26.433594 C 26.804688 26.414062 26.949219 26.351562 27.097656 26.273438 L 28.71875 25.414062 L 30.339844 26.273438 C 30.484375 26.351562 30.632812 26.414062 30.816406 26.433594 C 31 26.460938 31.257812 26.410156 31.433594 26.242188 C 31.609375 26.078125 31.667969 25.867188 31.683594 25.691406 C 31.703125 25.515625 31.683594 25.347656 31.652344 25.15625 L 31.367188 23.355469 L 32.628906 22.214844 C 32.757812 22.097656 32.851562 21.972656 32.9375 21.824219 C 33.019531 21.675781 33.09375 21.464844 33.039062 21.222656 C 32.984375 20.984375 32.800781 20.808594 32.636719 20.722656 C 32.476562 20.636719 32.3125 20.601562 32.136719 20.574219 L 30.351562 20.308594 L 29.578125 18.710938 C 29.421875 18.390625 29.132812 18.085938 28.71875 18.085938 Z M 28.71875 18.085938 " fill-opacity="1" fill-rule="nonzero"/></svg>